<?xml version="1.0" standalone="no"?>
<!DOCTYPE svg PUBLIC "-//W3C//DTD SVG 20010904//EN"
 "http://www.w3.org/TR/2001/REC-SVG-20010904/DTD/svg10.dtd">
<svg version="1.0" xmlns="http://www.w3.org/2000/svg"
 width="268.000000pt" height="268.000000pt" viewBox="0 0 268.000000 268.000000"
 preserveAspectRatio="xMidYMid meet">
<metadata>
Created by potrace 1.14, written by Peter Selinger 2001-2017
</metadata>
<g transform="translate(0.000000,268.000000) scale(0.100000,-0.100000)"
fill="#000000" stroke="none">
<path d="M1209 2366 c-2 -2 -24 -7 -49 -10 -402 -54 -756 -322 -896 -678 -13
-35 -26 -72 -28 -83 -3 -11 -10 -42 -16 -70 -16 -66 -21 -255 -9 -330 22 -139
77 -279 157 -400 53 -81 192 -222 275 -280 136 -95 303 -162 482 -195 125 -23
365 -20 465 5 36 9 75 19 87 21 37 7 186 66 233 93 25 13 54 29 65 35 85 46
240 187 312 286 227 308 254 719 68 1044 -165 290 -451 483 -815 551 -40 8
-324 17 -331 11z"/>
</g>
</svg>
